<svg xmlns="http://www.w3.org/2000/svg" version="1.0" viewBox="0 0 1000.000000 3000.000000" >

<g transform="translate(-8700.000000,7500.000000) scale(0.4,-0.4)"fill="#2563eb" stroke="none">
<path d="M8015 17588 c-7 -19 -145 -474 -321 -1058 -101 -335 -121 -401 -208 -685 -30 -99 -97 -322 -150 -495 -403 -1333 -576 -1907 -637 -2105 -38 -126 -79 -261 -91 -300 -11 -38 -31 -104 -44 -145 -46 -150 -62 -205 -59 -208 3 -4 617 -192 626 -192 4 0 11 17 16 38 6 20 113 368 238 772 125 404 272 881 326 1060 55 179 129 417 164 530 35 113 130 419 210 680 81 261 230 745 332 1075 227 736 252 819 250 820 -1 1 -81 29 -177 62 -96 34 -240 84 -319 112 -80 28 -146 51 -148 51 -2 0 -6 -6 -8 -12z"/>
<path d="M5498 15973 l-3 -448 -432 -3 -433 -2 0 -475 0 -475 433 -2 432 -3 3 -447 2 -448 455 0 455 0 0 475 0 475 -435 0 -435 0 2 423 3 422 433 3 432 2 0 475 0 475 -455 0 -455 0 -2 -447z"/>
<path d="M8640 15945 l0 -475 430 0 430 0 0 -425 0 -425 -430 0 -430 0 0 -475 0 -475 455 0 455 0 0 450 0 450 435 0 435 0 0 475 0 475 -435 0 -435 0 0 450 0 450 -455 0 -455 0 0 -475z"/>
<path d="M14285 16108 c-290 -32 -604 -193 -762 -391 -144 -180 -209 -332 -234 -550 -48 -416 121 -788 462 -1013 174 -115 348 -174 578 -195 491 -46 935 160 1161 539 189 319 182 788 -16 1100 -238 375 -685 567 -1189 510z m325 -462 c234 -50 411 -199 482 -405 33 -95 33 -303 1 -406 -56 -179 -210 -326 -408 -392 -71 -24 -96 -27 -225 -27 -162 -1 -237 15 -355 77 -75 40 -211 173 -248 244 -63 118 -86 325 -52 458 60 228 241 395 490 450 80 18 234 18 315 1z"/>
<path d="M11340 15035 l0 -1045 255 0 255 0 0 473 c0 449 1 471 18 451 9 -12 98 -115 197 -229 99 -114 194 -224 210 -244 17 -21 89 -104 160 -186 72 -83 141 -163 155 -179 14 -16 36 -42 50 -58 l25 -29 301 3 301 3 -141 161 c-78 88 -231 263 -341 389 -110 126 -253 288 -317 361 -65 73 -118 138 -118 143 0 10 57 80 205 256 121 144 241 287 363 435 75 91 163 197 196 235 33 39 67 78 75 88 13 16 -1 17 -285 17 l-299 0 -235 -282 c-129 -155 -298 -358 -375 -450 l-140 -168 -3 450 -2 450 -255 0 -255 0 0 -1045z"/>
<path d="M15960 15034 l0 -1046 543 5 c511 4 548 5 639 26 378 84 668 306 799 611 65 150 74 203 74 405 -1 199 -11 258 -66 391 -68 164 -219 343 -379 450 -153 102 -359 173 -561 194 -56 5 -314 10 -575 10 l-474 0 0 -1046z m1115 552 c175 -50 319 -162 384 -300 66 -137 73 -304 21 -453 -42 -122 -150 -238 -273 -297 -133 -64 -164 -69 -464 -73 l-273 -5 0 577 0 577 273 -5 c216 -3 284 -8 332 -21z"/>
<path d="M18090 16075 c0 -2 35 -53 78 -112 43 -59 125 -173 182 -253 57 -80 176 -245 264 -368 89 -123 169 -235 178 -250 l17 -27 -87 -121 c-92 -127 -171 -236 -362 -499 -259 -355 -320 -440 -320 -448 0 -4 136 -6 302 -5 l303 3 50 72 c27 39 100 140 160 224 111 153 125 173 224 313 51 71 57 76 91 76 34 0 41 -5 81 -64 55 -79 216 -305 322 -451 45 -60 91 -125 104 -142 l24 -33 305 0 304 0 -52 72 c-29 39 -87 118 -128 175 -41 57 -193 265 -337 463 -145 197 -263 363 -263 368 0 7 122 179 225 317 28 38 115 160 147 205 17 25 95 133 173 240 78 107 150 207 160 223 l17 27 -299 0 -300 0 -68 -97 c-91 -130 -222 -315 -308 -435 -66 -95 -70 -98 -107 -98 l-38 0 -144 203 c-80 111 -180 252 -224 314 l-79 112 -297 1 c-164 0 -298 -2 -298 -5z"/>
<path d="M21400 15439 c0 -607 1 -646 21 -742 57 -286 228 -512 483 -637 331 -164 795 -137 1091 63 175 119 308 310 366 527 23 84 23 93 27 758 l3 672 -251 0 -250 0 0 -592 c0 -326 -4 -618 -9 -648 -29 -175 -138 -310 -300 -371 -81 -30 -227 -37 -320 -14 -179 44 -317 189 -350 369 -7 39 -11 271 -11 658 l0 598 -250 0 -250 0 0 -641z"/>
<path d="M23750 15845 l0 -235 549 -2 549 -3 -106 -111 c-91 -95 -733 -767 -944 -989 l-67 -70 -1 -222 0 -223 925 0 925 0 0 235 0 235 -565 0 c-499 0 -602 4 -556 22 4 2 64 62 131 133 68 72 167 175 219 230 53 55 179 188 281 295 102 107 239 251 305 320 67 69 133 138 148 155 l27 30 0 217 0 218 -910 0 -910 0 0 -235z"/>
<path d="M20500 14250 l0 -260 260 0 260 0 0 260 0 260 -260 0 -260 0 0 -260z"/>
</g> </svg>